<mxfile host="app.diagrams.net" modified="2023-04-22T17:24:41.832Z" agent="Mozilla/5.0 (Windows NT 10.0; Win64; x64) AppleWebKit/537.36 (KHTML, like Gecko) Chrome/112.0.0.0 Safari/537.36 Edg/112.0.1722.48" etag="LoPXQGJLEK8WTbHjp7kQ" version="21.2.1" type="google">
  <diagram name="第 1 页" id="J8lM_nDxS5TgUlFvMCj_">
    <mxGraphModel grid="1" page="1" gridSize="10" guides="1" tooltips="1" connect="1" arrows="1" fold="1" pageScale="1" pageWidth="827" pageHeight="1169" math="0" shadow="0">
      <root>
        <mxCell id="0" />
        <mxCell id="1" parent="0" />
        <mxCell id="ULCW9xKcWNMjdS3p1XuG-3" value="" style="rounded=0;whiteSpace=wrap;html=1;" vertex="1" parent="1">
          <mxGeometry x="70" y="-1140" width="2370" height="2510" as="geometry" />
        </mxCell>
        <mxCell id="ULCW9xKcWNMjdS3p1XuG-5" value="" style="rounded=0;whiteSpace=wrap;html=1;dashed=1;" vertex="1" parent="1">
          <mxGeometry x="1054" y="320" width="620" height="290" as="geometry" />
        </mxCell>
        <mxCell id="ULCW9xKcWNMjdS3p1XuG-7" value="" style="rounded=0;whiteSpace=wrap;html=1;dashed=1;" vertex="1" parent="1">
          <mxGeometry x="455.78999999999996" y="1060" width="330" height="240" as="geometry" />
        </mxCell>
        <mxCell id="ULCW9xKcWNMjdS3p1XuG-8" value="" style="rounded=0;whiteSpace=wrap;html=1;dashed=1;" vertex="1" parent="1">
          <mxGeometry x="158" y="-90" width="841" height="740" as="geometry" />
        </mxCell>
        <mxCell id="ULCW9xKcWNMjdS3p1XuG-9" value="" style="rounded=0;whiteSpace=wrap;html=1;dashed=1;" vertex="1" parent="1">
          <mxGeometry x="158" y="-800" width="841" height="610" as="geometry" />
        </mxCell>
        <mxCell id="ULCW9xKcWNMjdS3p1XuG-10" value="" style="rounded=0;whiteSpace=wrap;html=1;dashed=1;" vertex="1" parent="1">
          <mxGeometry x="1100" y="-802.5" width="1000" height="772.5" as="geometry" />
        </mxCell>
        <mxCell id="ULCW9xKcWNMjdS3p1XuG-21" value="Wrapper Pattern" style="text;html=1;strokeColor=none;fillColor=none;align=center;verticalAlign=middle;whiteSpace=wrap;rounded=0;fontSize=20;fontFamily=Times New Roman;" vertex="1" parent="1">
          <mxGeometry x="1498.93" y="-780" width="180" height="30" as="geometry" />
        </mxCell>
        <mxCell id="ULCW9xKcWNMjdS3p1XuG-23" value="test_record" style="rounded=0;whiteSpace=wrap;html=1;fillColor=#42E0FF;fontFamily=Times New Roman;fontSize=20;" vertex="1" parent="1">
          <mxGeometry x="1821.3600000000001" y="-420" width="260" height="50" as="geometry" />
        </mxCell>
        <mxCell id="ULCW9xKcWNMjdS3p1XuG-26" style="edgeStyle=orthogonalEdgeStyle;rounded=0;orthogonalLoop=1;jettySize=auto;html=1;exitX=0;exitY=0.5;exitDx=0;exitDy=0;entryX=0;entryY=0.5;entryDx=0;entryDy=0;" edge="1" parent="1" source="ULCW9xKcWNMjdS3p1XuG-32" target="ULCW9xKcWNMjdS3p1XuG-35">
          <mxGeometry relative="1" as="geometry" />
        </mxCell>
        <mxCell id="ULCW9xKcWNMjdS3p1XuG-27" style="edgeStyle=orthogonalEdgeStyle;rounded=0;orthogonalLoop=1;jettySize=auto;html=1;exitX=0;exitY=0.5;exitDx=0;exitDy=0;entryX=0;entryY=0.5;entryDx=0;entryDy=0;" edge="1" parent="1" source="ULCW9xKcWNMjdS3p1XuG-32" target="ULCW9xKcWNMjdS3p1XuG-36">
          <mxGeometry relative="1" as="geometry" />
        </mxCell>
        <mxCell id="ULCW9xKcWNMjdS3p1XuG-28" style="edgeStyle=orthogonalEdgeStyle;rounded=0;orthogonalLoop=1;jettySize=auto;html=1;exitX=0;exitY=0.5;exitDx=0;exitDy=0;entryX=0;entryY=0.5;entryDx=0;entryDy=0;" edge="1" parent="1" source="ULCW9xKcWNMjdS3p1XuG-32" target="ULCW9xKcWNMjdS3p1XuG-37">
          <mxGeometry relative="1" as="geometry" />
        </mxCell>
        <mxCell id="ULCW9xKcWNMjdS3p1XuG-29" style="edgeStyle=orthogonalEdgeStyle;rounded=0;orthogonalLoop=1;jettySize=auto;html=1;exitX=1;exitY=0.5;exitDx=0;exitDy=0;entryX=1;entryY=0.5;entryDx=0;entryDy=0;" edge="1" parent="1" source="ULCW9xKcWNMjdS3p1XuG-32" target="ULCW9xKcWNMjdS3p1XuG-41">
          <mxGeometry relative="1" as="geometry" />
        </mxCell>
        <mxCell id="ULCW9xKcWNMjdS3p1XuG-30" style="edgeStyle=orthogonalEdgeStyle;rounded=0;orthogonalLoop=1;jettySize=auto;html=1;exitX=1;exitY=0.5;exitDx=0;exitDy=0;entryX=1;entryY=0.5;entryDx=0;entryDy=0;" edge="1" parent="1" source="ULCW9xKcWNMjdS3p1XuG-32" target="ULCW9xKcWNMjdS3p1XuG-42">
          <mxGeometry relative="1" as="geometry" />
        </mxCell>
        <mxCell id="ULCW9xKcWNMjdS3p1XuG-31" style="edgeStyle=orthogonalEdgeStyle;rounded=0;orthogonalLoop=1;jettySize=auto;html=1;exitX=1;exitY=0.5;exitDx=0;exitDy=0;entryX=1;entryY=0.5;entryDx=0;entryDy=0;" edge="1" parent="1" source="ULCW9xKcWNMjdS3p1XuG-32" target="ULCW9xKcWNMjdS3p1XuG-62">
          <mxGeometry relative="1" as="geometry" />
        </mxCell>
        <mxCell id="ULCW9xKcWNMjdS3p1XuG-148" style="edgeStyle=orthogonalEdgeStyle;rounded=0;orthogonalLoop=1;jettySize=auto;html=1;exitX=0;exitY=0.5;exitDx=0;exitDy=0;entryX=0;entryY=0.5;entryDx=0;entryDy=0;" edge="1" parent="1" source="ULCW9xKcWNMjdS3p1XuG-32" target="ULCW9xKcWNMjdS3p1XuG-147">
          <mxGeometry relative="1" as="geometry" />
        </mxCell>
        <mxCell id="ULCW9xKcWNMjdS3p1XuG-32" value="callback executor" style="rounded=0;whiteSpace=wrap;html=1;fillColor=#42E0FF;fontFamily=Times New Roman;fontSize=20;" vertex="1" parent="1">
          <mxGeometry x="424.14" y="-760" width="260" height="50" as="geometry" />
        </mxCell>
        <mxCell id="ULCW9xKcWNMjdS3p1XuG-35" value="xml report generator" style="rounded=0;whiteSpace=wrap;html=1;fillColor=#42E0FF;fontFamily=Times New Roman;fontSize=20;" vertex="1" parent="1">
          <mxGeometry x="308.14" y="-530" width="260" height="50" as="geometry" />
        </mxCell>
        <mxCell id="ULCW9xKcWNMjdS3p1XuG-36" value="json report generator" style="rounded=0;whiteSpace=wrap;html=1;fillColor=#42E0FF;fontFamily=Times New Roman;fontSize=20;" vertex="1" parent="1">
          <mxGeometry x="308.14" y="-440" width="260" height="50" as="geometry" />
        </mxCell>
        <mxCell id="ULCW9xKcWNMjdS3p1XuG-37" value="html report generator" style="rounded=0;whiteSpace=wrap;html=1;fillColor=#42E0FF;fontFamily=Times New Roman;fontSize=20;" vertex="1" parent="1">
          <mxGeometry x="308.14" y="-360" width="260" height="50" as="geometry" />
        </mxCell>
        <mxCell id="ULCW9xKcWNMjdS3p1XuG-38" value="Wrapper" style="text;html=1;strokeColor=none;fillColor=none;align=center;verticalAlign=middle;whiteSpace=wrap;rounded=0;fontSize=30;fontFamily=Times New Roman;fontStyle=1" vertex="1" parent="1">
          <mxGeometry x="1488.5" y="-840" width="180" height="30" as="geometry" />
        </mxCell>
        <mxCell id="ULCW9xKcWNMjdS3p1XuG-39" value="exceptions" style="rounded=0;whiteSpace=wrap;html=1;fillColor=#42E0FF;fontFamily=Times New Roman;fontSize=20;" vertex="1" parent="1">
          <mxGeometry x="1170" y="-540" width="260" height="50" as="geometry" />
        </mxCell>
        <mxCell id="ULCW9xKcWNMjdS3p1XuG-40" value="exception_tags" style="rounded=0;whiteSpace=wrap;html=1;fillColor=#42E0FF;fontFamily=Times New Roman;fontSize=20;" vertex="1" parent="1">
          <mxGeometry x="1170" y="-460" width="260" height="50" as="geometry" />
        </mxCell>
        <mxCell id="ULCW9xKcWNMjdS3p1XuG-41" value="exceptions" style="rounded=0;whiteSpace=wrap;html=1;fillColor=#42E0FF;fontFamily=Times New Roman;fontSize=20;" vertex="1" parent="1">
          <mxGeometry x="614.14" y="-620" width="260" height="50" as="geometry" />
        </mxCell>
        <mxCell id="ULCW9xKcWNMjdS3p1XuG-42" value="exception_tags" style="rounded=0;whiteSpace=wrap;html=1;fillColor=#42E0FF;fontFamily=Times New Roman;fontSize=20;" vertex="1" parent="1">
          <mxGeometry x="614.14" y="-540" width="260" height="50" as="geometry" />
        </mxCell>
        <mxCell id="ULCW9xKcWNMjdS3p1XuG-43" value="Callback Executor" style="text;html=1;strokeColor=none;fillColor=none;align=center;verticalAlign=middle;whiteSpace=wrap;rounded=0;fontSize=30;fontFamily=Times New Roman;fontStyle=1" vertex="1" parent="1">
          <mxGeometry x="446.57" y="-850" width="263.86" height="30" as="geometry" />
        </mxCell>
        <mxCell id="ULCW9xKcWNMjdS3p1XuG-44" value="APITestka need all modules" style="rounded=0;whiteSpace=wrap;html=1;fillColor=#42E0FF;fontFamily=Times New Roman;fontSize=20;" vertex="1" parent="1">
          <mxGeometry x="1111" y="-1050" width="260" height="50" as="geometry" />
        </mxCell>
        <mxCell id="ULCW9xKcWNMjdS3p1XuG-45" value="Executor" style="text;html=1;strokeColor=none;fillColor=none;align=center;verticalAlign=middle;whiteSpace=wrap;rounded=0;fontSize=30;fontFamily=Times New Roman;fontStyle=1" vertex="1" parent="1">
          <mxGeometry x="422.21" y="-130" width="263.86" height="30" as="geometry" />
        </mxCell>
        <mxCell id="ULCW9xKcWNMjdS3p1XuG-48" style="edgeStyle=orthogonalEdgeStyle;rounded=0;orthogonalLoop=1;jettySize=auto;html=1;exitX=0;exitY=0.5;exitDx=0;exitDy=0;entryX=0;entryY=0.5;entryDx=0;entryDy=0;" edge="1" parent="1" source="ULCW9xKcWNMjdS3p1XuG-54" target="ULCW9xKcWNMjdS3p1XuG-57">
          <mxGeometry relative="1" as="geometry" />
        </mxCell>
        <mxCell id="ULCW9xKcWNMjdS3p1XuG-49" style="edgeStyle=orthogonalEdgeStyle;rounded=0;orthogonalLoop=1;jettySize=auto;html=1;exitX=0;exitY=0.5;exitDx=0;exitDy=0;entryX=0;entryY=0.5;entryDx=0;entryDy=0;" edge="1" parent="1" source="ULCW9xKcWNMjdS3p1XuG-54" target="ULCW9xKcWNMjdS3p1XuG-58">
          <mxGeometry relative="1" as="geometry" />
        </mxCell>
        <mxCell id="ULCW9xKcWNMjdS3p1XuG-50" style="edgeStyle=orthogonalEdgeStyle;rounded=0;orthogonalLoop=1;jettySize=auto;html=1;exitX=0;exitY=0.5;exitDx=0;exitDy=0;entryX=0;entryY=0.5;entryDx=0;entryDy=0;" edge="1" parent="1" source="ULCW9xKcWNMjdS3p1XuG-54" target="ULCW9xKcWNMjdS3p1XuG-59">
          <mxGeometry relative="1" as="geometry" />
        </mxCell>
        <mxCell id="ULCW9xKcWNMjdS3p1XuG-51" style="edgeStyle=orthogonalEdgeStyle;rounded=0;orthogonalLoop=1;jettySize=auto;html=1;exitX=1;exitY=0.5;exitDx=0;exitDy=0;entryX=1;entryY=0.5;entryDx=0;entryDy=0;" edge="1" parent="1" source="ULCW9xKcWNMjdS3p1XuG-54" target="ULCW9xKcWNMjdS3p1XuG-60">
          <mxGeometry relative="1" as="geometry" />
        </mxCell>
        <mxCell id="ULCW9xKcWNMjdS3p1XuG-52" style="edgeStyle=orthogonalEdgeStyle;rounded=0;orthogonalLoop=1;jettySize=auto;html=1;exitX=1;exitY=0.5;exitDx=0;exitDy=0;entryX=1;entryY=0.5;entryDx=0;entryDy=0;" edge="1" parent="1" source="ULCW9xKcWNMjdS3p1XuG-54" target="ULCW9xKcWNMjdS3p1XuG-61">
          <mxGeometry relative="1" as="geometry" />
        </mxCell>
        <mxCell id="ULCW9xKcWNMjdS3p1XuG-53" style="edgeStyle=orthogonalEdgeStyle;rounded=0;orthogonalLoop=1;jettySize=auto;html=1;exitX=1;exitY=0.5;exitDx=0;exitDy=0;entryX=1;entryY=0.5;entryDx=0;entryDy=0;" edge="1" parent="1" source="ULCW9xKcWNMjdS3p1XuG-54" target="ULCW9xKcWNMjdS3p1XuG-63">
          <mxGeometry relative="1" as="geometry" />
        </mxCell>
        <mxCell id="ULCW9xKcWNMjdS3p1XuG-150" style="edgeStyle=orthogonalEdgeStyle;rounded=0;orthogonalLoop=1;jettySize=auto;html=1;exitX=0;exitY=0.5;exitDx=0;exitDy=0;entryX=0;entryY=0.5;entryDx=0;entryDy=0;" edge="1" parent="1" source="ULCW9xKcWNMjdS3p1XuG-54" target="ULCW9xKcWNMjdS3p1XuG-149">
          <mxGeometry relative="1" as="geometry" />
        </mxCell>
        <mxCell id="ULCW9xKcWNMjdS3p1XuG-54" value="executor" style="rounded=0;whiteSpace=wrap;html=1;fillColor=#42E0FF;fontFamily=Times New Roman;fontSize=20;" vertex="1" parent="1">
          <mxGeometry x="424.14" y="-40" width="260" height="50" as="geometry" />
        </mxCell>
        <mxCell id="ULCW9xKcWNMjdS3p1XuG-57" value="xml report generator" style="rounded=0;whiteSpace=wrap;html=1;fillColor=#42E0FF;fontFamily=Times New Roman;fontSize=20;" vertex="1" parent="1">
          <mxGeometry x="308.14" y="190" width="260" height="50" as="geometry" />
        </mxCell>
        <mxCell id="ULCW9xKcWNMjdS3p1XuG-58" value="json report generator" style="rounded=0;whiteSpace=wrap;html=1;fillColor=#42E0FF;fontFamily=Times New Roman;fontSize=20;" vertex="1" parent="1">
          <mxGeometry x="308.14" y="280" width="260" height="50" as="geometry" />
        </mxCell>
        <mxCell id="ULCW9xKcWNMjdS3p1XuG-59" value="html report generator" style="rounded=0;whiteSpace=wrap;html=1;fillColor=#42E0FF;fontFamily=Times New Roman;fontSize=20;" vertex="1" parent="1">
          <mxGeometry x="308.14" y="360" width="260" height="50" as="geometry" />
        </mxCell>
        <mxCell id="ULCW9xKcWNMjdS3p1XuG-60" value="exceptions" style="rounded=0;whiteSpace=wrap;html=1;fillColor=#42E0FF;fontFamily=Times New Roman;fontSize=20;" vertex="1" parent="1">
          <mxGeometry x="614.14" y="100" width="260" height="50" as="geometry" />
        </mxCell>
        <mxCell id="ULCW9xKcWNMjdS3p1XuG-61" value="exception_tags" style="rounded=0;whiteSpace=wrap;html=1;fillColor=#42E0FF;fontFamily=Times New Roman;fontSize=20;" vertex="1" parent="1">
          <mxGeometry x="614.14" y="180" width="260" height="50" as="geometry" />
        </mxCell>
        <mxCell id="ULCW9xKcWNMjdS3p1XuG-62" value="package manager" style="rounded=0;whiteSpace=wrap;html=1;fillColor=#42E0FF;fontFamily=Times New Roman;fontSize=20;" vertex="1" parent="1">
          <mxGeometry x="614.14" y="-450" width="260" height="50" as="geometry" />
        </mxCell>
        <mxCell id="ULCW9xKcWNMjdS3p1XuG-63" value="package manager" style="rounded=0;whiteSpace=wrap;html=1;fillColor=#42E0FF;fontFamily=Times New Roman;fontSize=20;" vertex="1" parent="1">
          <mxGeometry x="614.14" y="270" width="260" height="50" as="geometry" />
        </mxCell>
        <mxCell id="ULCW9xKcWNMjdS3p1XuG-64" style="edgeStyle=orthogonalEdgeStyle;rounded=0;orthogonalLoop=1;jettySize=auto;html=1;exitX=0;exitY=0.5;exitDx=0;exitDy=0;entryX=0;entryY=0.5;entryDx=0;entryDy=0;" edge="1" parent="1" source="ULCW9xKcWNMjdS3p1XuG-66" target="ULCW9xKcWNMjdS3p1XuG-67">
          <mxGeometry relative="1" as="geometry" />
        </mxCell>
        <mxCell id="ULCW9xKcWNMjdS3p1XuG-65" style="edgeStyle=orthogonalEdgeStyle;rounded=0;orthogonalLoop=1;jettySize=auto;html=1;exitX=0;exitY=0.5;exitDx=0;exitDy=0;entryX=0;entryY=0.5;entryDx=0;entryDy=0;" edge="1" parent="1" source="ULCW9xKcWNMjdS3p1XuG-66" target="ULCW9xKcWNMjdS3p1XuG-68">
          <mxGeometry relative="1" as="geometry" />
        </mxCell>
        <mxCell id="ULCW9xKcWNMjdS3p1XuG-66" value="html report generator" style="rounded=0;whiteSpace=wrap;html=1;fillColor=#42E0FF;fontFamily=Times New Roman;fontSize=20;" vertex="1" parent="1">
          <mxGeometry x="497.78999999999996" y="1065" width="260" height="50" as="geometry" />
        </mxCell>
        <mxCell id="ULCW9xKcWNMjdS3p1XuG-67" value="exceptions" style="rounded=0;whiteSpace=wrap;html=1;fillColor=#42E0FF;fontFamily=Times New Roman;fontSize=20;" vertex="1" parent="1">
          <mxGeometry x="497.78999999999996" y="1155" width="260" height="50" as="geometry" />
        </mxCell>
        <mxCell id="ULCW9xKcWNMjdS3p1XuG-68" value="exception_tags" style="rounded=0;whiteSpace=wrap;html=1;fillColor=#42E0FF;fontFamily=Times New Roman;fontSize=20;" vertex="1" parent="1">
          <mxGeometry x="497.78999999999996" y="1235" width="260" height="50" as="geometry" />
        </mxCell>
        <mxCell id="ULCW9xKcWNMjdS3p1XuG-69" value="HTML report generator" style="text;html=1;strokeColor=none;fillColor=none;align=center;verticalAlign=middle;whiteSpace=wrap;rounded=0;fontSize=30;fontFamily=Times New Roman;fontStyle=1" vertex="1" parent="1">
          <mxGeometry x="441.8600000000001" y="1010" width="371.86" height="30" as="geometry" />
        </mxCell>
        <mxCell id="ULCW9xKcWNMjdS3p1XuG-70" value="" style="rounded=0;whiteSpace=wrap;html=1;dashed=1;" vertex="1" parent="1">
          <mxGeometry x="105.64000000000006" y="1050" width="310" height="250" as="geometry" />
        </mxCell>
        <mxCell id="ULCW9xKcWNMjdS3p1XuG-71" style="edgeStyle=orthogonalEdgeStyle;rounded=0;orthogonalLoop=1;jettySize=auto;html=1;exitX=0;exitY=0.5;exitDx=0;exitDy=0;entryX=0;entryY=0.5;entryDx=0;entryDy=0;" edge="1" parent="1" source="ULCW9xKcWNMjdS3p1XuG-73" target="ULCW9xKcWNMjdS3p1XuG-74">
          <mxGeometry relative="1" as="geometry" />
        </mxCell>
        <mxCell id="ULCW9xKcWNMjdS3p1XuG-72" style="edgeStyle=orthogonalEdgeStyle;rounded=0;orthogonalLoop=1;jettySize=auto;html=1;exitX=0;exitY=0.5;exitDx=0;exitDy=0;entryX=0;entryY=0.5;entryDx=0;entryDy=0;" edge="1" parent="1" source="ULCW9xKcWNMjdS3p1XuG-73" target="ULCW9xKcWNMjdS3p1XuG-75">
          <mxGeometry relative="1" as="geometry" />
        </mxCell>
        <mxCell id="ULCW9xKcWNMjdS3p1XuG-73" value="html report generator" style="rounded=0;whiteSpace=wrap;html=1;fillColor=#42E0FF;fontFamily=Times New Roman;fontSize=20;" vertex="1" parent="1">
          <mxGeometry x="146.70999999999978" y="1060" width="260" height="50" as="geometry" />
        </mxCell>
        <mxCell id="ULCW9xKcWNMjdS3p1XuG-74" value="exceptions" style="rounded=0;whiteSpace=wrap;html=1;fillColor=#42E0FF;fontFamily=Times New Roman;fontSize=20;" vertex="1" parent="1">
          <mxGeometry x="146.70999999999978" y="1150" width="260" height="50" as="geometry" />
        </mxCell>
        <mxCell id="ULCW9xKcWNMjdS3p1XuG-75" value="exception_tags" style="rounded=0;whiteSpace=wrap;html=1;fillColor=#42E0FF;fontFamily=Times New Roman;fontSize=20;" vertex="1" parent="1">
          <mxGeometry x="146.70999999999978" y="1230" width="260" height="50" as="geometry" />
        </mxCell>
        <mxCell id="ULCW9xKcWNMjdS3p1XuG-76" value="JSON report generator" style="text;html=1;strokeColor=none;fillColor=none;align=center;verticalAlign=middle;whiteSpace=wrap;rounded=0;fontSize=30;fontFamily=Times New Roman;fontStyle=1" vertex="1" parent="1">
          <mxGeometry x="74.71" y="1010" width="371.86" height="30" as="geometry" />
        </mxCell>
        <mxCell id="ULCW9xKcWNMjdS3p1XuG-77" value="" style="rounded=0;whiteSpace=wrap;html=1;dashed=1;" vertex="1" parent="1">
          <mxGeometry x="836.72" y="1050" width="310" height="250" as="geometry" />
        </mxCell>
        <mxCell id="ULCW9xKcWNMjdS3p1XuG-78" style="edgeStyle=orthogonalEdgeStyle;rounded=0;orthogonalLoop=1;jettySize=auto;html=1;exitX=0;exitY=0.5;exitDx=0;exitDy=0;entryX=0;entryY=0.5;entryDx=0;entryDy=0;" edge="1" parent="1" source="ULCW9xKcWNMjdS3p1XuG-80" target="ULCW9xKcWNMjdS3p1XuG-81">
          <mxGeometry relative="1" as="geometry" />
        </mxCell>
        <mxCell id="ULCW9xKcWNMjdS3p1XuG-79" style="edgeStyle=orthogonalEdgeStyle;rounded=0;orthogonalLoop=1;jettySize=auto;html=1;exitX=0;exitY=0.5;exitDx=0;exitDy=0;entryX=0;entryY=0.5;entryDx=0;entryDy=0;" edge="1" parent="1" source="ULCW9xKcWNMjdS3p1XuG-80" target="ULCW9xKcWNMjdS3p1XuG-82">
          <mxGeometry relative="1" as="geometry" />
        </mxCell>
        <mxCell id="ULCW9xKcWNMjdS3p1XuG-80" value="html report generator" style="rounded=0;whiteSpace=wrap;html=1;fillColor=#42E0FF;fontFamily=Times New Roman;fontSize=20;" vertex="1" parent="1">
          <mxGeometry x="874.72" y="1060" width="260" height="50" as="geometry" />
        </mxCell>
        <mxCell id="ULCW9xKcWNMjdS3p1XuG-81" value="exceptions" style="rounded=0;whiteSpace=wrap;html=1;fillColor=#42E0FF;fontFamily=Times New Roman;fontSize=20;" vertex="1" parent="1">
          <mxGeometry x="874.72" y="1150" width="260" height="50" as="geometry" />
        </mxCell>
        <mxCell id="ULCW9xKcWNMjdS3p1XuG-82" value="exception_tags" style="rounded=0;whiteSpace=wrap;html=1;fillColor=#42E0FF;fontFamily=Times New Roman;fontSize=20;" vertex="1" parent="1">
          <mxGeometry x="874.72" y="1230" width="260" height="50" as="geometry" />
        </mxCell>
        <mxCell id="ULCW9xKcWNMjdS3p1XuG-83" value="XML report generator" style="text;html=1;strokeColor=none;fillColor=none;align=center;verticalAlign=middle;whiteSpace=wrap;rounded=0;fontSize=30;fontFamily=Times New Roman;fontStyle=1" vertex="1" parent="1">
          <mxGeometry x="805.7900000000002" y="1010" width="371.86" height="30" as="geometry" />
        </mxCell>
        <mxCell id="ULCW9xKcWNMjdS3p1XuG-93" style="edgeStyle=orthogonalEdgeStyle;rounded=0;orthogonalLoop=1;jettySize=auto;html=1;exitX=0.5;exitY=1;exitDx=0;exitDy=0;entryX=0;entryY=0.5;entryDx=0;entryDy=0;" edge="1" parent="1" source="ULCW9xKcWNMjdS3p1XuG-95" target="ULCW9xKcWNMjdS3p1XuG-98">
          <mxGeometry relative="1" as="geometry" />
        </mxCell>
        <mxCell id="ULCW9xKcWNMjdS3p1XuG-94" style="edgeStyle=orthogonalEdgeStyle;rounded=0;orthogonalLoop=1;jettySize=auto;html=1;exitX=0.5;exitY=1;exitDx=0;exitDy=0;entryX=0;entryY=0.5;entryDx=0;entryDy=0;" edge="1" parent="1" source="ULCW9xKcWNMjdS3p1XuG-95" target="ULCW9xKcWNMjdS3p1XuG-97">
          <mxGeometry relative="1" as="geometry" />
        </mxCell>
        <mxCell id="ULCW9xKcWNMjdS3p1XuG-95" value="JSON file" style="rounded=0;whiteSpace=wrap;html=1;fillColor=#42E0FF;fontFamily=Times New Roman;fontSize=20;" vertex="1" parent="1">
          <mxGeometry x="1084" y="340" width="260" height="50" as="geometry" />
        </mxCell>
        <mxCell id="ULCW9xKcWNMjdS3p1XuG-96" value="JSON" style="text;html=1;strokeColor=none;fillColor=none;align=center;verticalAlign=middle;whiteSpace=wrap;rounded=0;fontSize=30;fontFamily=Times New Roman;fontStyle=1" vertex="1" parent="1">
          <mxGeometry x="1244" y="280" width="263.86" height="30" as="geometry" />
        </mxCell>
        <mxCell id="ULCW9xKcWNMjdS3p1XuG-97" value="exceptions" style="rounded=0;whiteSpace=wrap;html=1;fillColor=#42E0FF;fontFamily=Times New Roman;fontSize=20;" vertex="1" parent="1">
          <mxGeometry x="1244" y="440" width="260" height="50" as="geometry" />
        </mxCell>
        <mxCell id="ULCW9xKcWNMjdS3p1XuG-98" value="exception_tags" style="rounded=0;whiteSpace=wrap;html=1;fillColor=#42E0FF;fontFamily=Times New Roman;fontSize=20;" vertex="1" parent="1">
          <mxGeometry x="1244" y="520" width="260" height="50" as="geometry" />
        </mxCell>
        <mxCell id="ULCW9xKcWNMjdS3p1XuG-99" style="edgeStyle=orthogonalEdgeStyle;rounded=0;orthogonalLoop=1;jettySize=auto;html=1;exitX=0.5;exitY=1;exitDx=0;exitDy=0;entryX=1;entryY=0.5;entryDx=0;entryDy=0;" edge="1" parent="1" source="ULCW9xKcWNMjdS3p1XuG-101" target="ULCW9xKcWNMjdS3p1XuG-97">
          <mxGeometry relative="1" as="geometry" />
        </mxCell>
        <mxCell id="ULCW9xKcWNMjdS3p1XuG-100" style="edgeStyle=orthogonalEdgeStyle;rounded=0;orthogonalLoop=1;jettySize=auto;html=1;exitX=0.5;exitY=1;exitDx=0;exitDy=0;entryX=1;entryY=0.5;entryDx=0;entryDy=0;" edge="1" parent="1" source="ULCW9xKcWNMjdS3p1XuG-101" target="ULCW9xKcWNMjdS3p1XuG-98">
          <mxGeometry relative="1" as="geometry" />
        </mxCell>
        <mxCell id="ULCW9xKcWNMjdS3p1XuG-101" value="JSON process" style="rounded=0;whiteSpace=wrap;html=1;fillColor=#42E0FF;fontFamily=Times New Roman;fontSize=20;" vertex="1" parent="1">
          <mxGeometry x="1402" y="340" width="260" height="50" as="geometry" />
        </mxCell>
        <mxCell id="ULCW9xKcWNMjdS3p1XuG-105" value="" style="rounded=0;whiteSpace=wrap;html=1;dashed=1;" vertex="1" parent="1">
          <mxGeometry x="105.63999999999987" y="830" width="400" height="110" as="geometry" />
        </mxCell>
        <mxCell id="ULCW9xKcWNMjdS3p1XuG-106" value="get dir file list" style="rounded=0;whiteSpace=wrap;html=1;fillColor=#42E0FF;fontFamily=Times New Roman;fontSize=20;" vertex="1" parent="1">
          <mxGeometry x="175.63999999999987" y="860" width="260" height="50" as="geometry" />
        </mxCell>
        <mxCell id="ULCW9xKcWNMjdS3p1XuG-107" value="File process" style="text;html=1;strokeColor=none;fillColor=none;align=center;verticalAlign=middle;whiteSpace=wrap;rounded=0;fontSize=30;fontFamily=Times New Roman;fontStyle=1" vertex="1" parent="1">
          <mxGeometry x="175.63999999999987" y="780" width="263.86" height="30" as="geometry" />
        </mxCell>
        <mxCell id="ULCW9xKcWNMjdS3p1XuG-108" value="" style="rounded=0;whiteSpace=wrap;html=1;dashed=1;" vertex="1" parent="1">
          <mxGeometry x="568.14" y="770" width="400" height="170" as="geometry" />
        </mxCell>
        <mxCell id="ULCW9xKcWNMjdS3p1XuG-109" value="exceptions" style="rounded=0;whiteSpace=wrap;html=1;fillColor=#42E0FF;fontFamily=Times New Roman;fontSize=20;" vertex="1" parent="1">
          <mxGeometry x="638.14" y="800" width="260" height="50" as="geometry" />
        </mxCell>
        <mxCell id="ULCW9xKcWNMjdS3p1XuG-110" value="Exceptions" style="text;html=1;strokeColor=none;fillColor=none;align=center;verticalAlign=middle;whiteSpace=wrap;rounded=0;fontSize=30;fontFamily=Times New Roman;fontStyle=1" vertex="1" parent="1">
          <mxGeometry x="638.14" y="720" width="263.86" height="30" as="geometry" />
        </mxCell>
        <mxCell id="ULCW9xKcWNMjdS3p1XuG-111" value="exception_tags" style="rounded=0;whiteSpace=wrap;html=1;fillColor=#42E0FF;fontFamily=Times New Roman;fontSize=20;" vertex="1" parent="1">
          <mxGeometry x="640.0700000000003" y="870" width="260" height="50" as="geometry" />
        </mxCell>
        <mxCell id="ULCW9xKcWNMjdS3p1XuG-112" value="" style="rounded=0;whiteSpace=wrap;html=1;dashed=1;" vertex="1" parent="1">
          <mxGeometry x="1530" y="695" width="592" height="290" as="geometry" />
        </mxCell>
        <mxCell id="ULCW9xKcWNMjdS3p1XuG-113" value="template executor" style="rounded=0;whiteSpace=wrap;html=1;fillColor=#42E0FF;fontFamily=Times New Roman;fontSize=20;" vertex="1" parent="1">
          <mxGeometry x="1564.8600000000006" y="830" width="260" height="50" as="geometry" />
        </mxCell>
        <mxCell id="ULCW9xKcWNMjdS3p1XuG-114" value="project" style="text;html=1;strokeColor=none;fillColor=none;align=center;verticalAlign=middle;whiteSpace=wrap;rounded=0;fontSize=30;fontFamily=Times New Roman;fontStyle=1" vertex="1" parent="1">
          <mxGeometry x="1694.0700000000002" y="655" width="263.86" height="30" as="geometry" />
        </mxCell>
        <mxCell id="ULCW9xKcWNMjdS3p1XuG-115" value="template keyword" style="rounded=0;whiteSpace=wrap;html=1;fillColor=#42E0FF;fontFamily=Times New Roman;fontSize=20;" vertex="1" parent="1">
          <mxGeometry x="1564.8600000000006" y="900" width="260" height="50" as="geometry" />
        </mxCell>
        <mxCell id="ULCW9xKcWNMjdS3p1XuG-116" style="edgeStyle=orthogonalEdgeStyle;rounded=0;orthogonalLoop=1;jettySize=auto;html=1;exitX=0;exitY=0.5;exitDx=0;exitDy=0;entryX=0;entryY=0.5;entryDx=0;entryDy=0;" edge="1" parent="1" source="ULCW9xKcWNMjdS3p1XuG-119" target="ULCW9xKcWNMjdS3p1XuG-113">
          <mxGeometry relative="1" as="geometry" />
        </mxCell>
        <mxCell id="ULCW9xKcWNMjdS3p1XuG-117" style="edgeStyle=orthogonalEdgeStyle;rounded=0;orthogonalLoop=1;jettySize=auto;html=1;exitX=0;exitY=0.5;exitDx=0;exitDy=0;entryX=0;entryY=0.5;entryDx=0;entryDy=0;" edge="1" parent="1" source="ULCW9xKcWNMjdS3p1XuG-119" target="ULCW9xKcWNMjdS3p1XuG-115">
          <mxGeometry relative="1" as="geometry" />
        </mxCell>
        <mxCell id="ULCW9xKcWNMjdS3p1XuG-118" style="edgeStyle=orthogonalEdgeStyle;rounded=0;orthogonalLoop=1;jettySize=auto;html=1;exitX=1;exitY=0.5;exitDx=0;exitDy=0;entryX=0.5;entryY=0;entryDx=0;entryDy=0;" edge="1" parent="1" source="ULCW9xKcWNMjdS3p1XuG-119" target="ULCW9xKcWNMjdS3p1XuG-120">
          <mxGeometry relative="1" as="geometry" />
        </mxCell>
        <mxCell id="ULCW9xKcWNMjdS3p1XuG-119" value="create project dir" style="rounded=0;whiteSpace=wrap;html=1;fillColor=#42E0FF;fontFamily=Times New Roman;fontSize=20;" vertex="1" parent="1">
          <mxGeometry x="1612.0000000000005" y="715" width="260" height="50" as="geometry" />
        </mxCell>
        <mxCell id="ULCW9xKcWNMjdS3p1XuG-120" value="JSON file" style="rounded=0;whiteSpace=wrap;html=1;fillColor=#42E0FF;fontFamily=Times New Roman;fontSize=20;" vertex="1" parent="1">
          <mxGeometry x="1838.9300000000003" y="830" width="260" height="50" as="geometry" />
        </mxCell>
        <mxCell id="ULCW9xKcWNMjdS3p1XuG-121" value="" style="rounded=0;whiteSpace=wrap;html=1;dashed=1;" vertex="1" parent="1">
          <mxGeometry x="1180" y="1130" width="360" height="170" as="geometry" />
        </mxCell>
        <mxCell id="ULCW9xKcWNMjdS3p1XuG-122" value="exceptions" style="rounded=0;whiteSpace=wrap;html=1;fillColor=#42E0FF;fontFamily=Times New Roman;fontSize=20;" vertex="1" parent="1">
          <mxGeometry x="1227.8600000000001" y="1160" width="260" height="50" as="geometry" />
        </mxCell>
        <mxCell id="ULCW9xKcWNMjdS3p1XuG-123" value="Exceptions" style="text;html=1;strokeColor=none;fillColor=none;align=center;verticalAlign=middle;whiteSpace=wrap;rounded=0;fontSize=30;fontFamily=Times New Roman;fontStyle=1" vertex="1" parent="1">
          <mxGeometry x="1227.8600000000001" y="1080" width="263.86" height="30" as="geometry" />
        </mxCell>
        <mxCell id="ULCW9xKcWNMjdS3p1XuG-124" value="exception_tags" style="rounded=0;whiteSpace=wrap;html=1;fillColor=#42E0FF;fontFamily=Times New Roman;fontSize=20;" vertex="1" parent="1">
          <mxGeometry x="1229.7900000000004" y="1230" width="260" height="50" as="geometry" />
        </mxCell>
        <mxCell id="ULCW9xKcWNMjdS3p1XuG-125" value="" style="rounded=0;whiteSpace=wrap;html=1;dashed=1;" vertex="1" parent="1">
          <mxGeometry x="1598" y="1130" width="320" height="170" as="geometry" />
        </mxCell>
        <mxCell id="ULCW9xKcWNMjdS3p1XuG-126" style="edgeStyle=orthogonalEdgeStyle;rounded=0;orthogonalLoop=1;jettySize=auto;html=1;exitX=0;exitY=0.5;exitDx=0;exitDy=0;entryX=0;entryY=0.5;entryDx=0;entryDy=0;" edge="1" parent="1" source="ULCW9xKcWNMjdS3p1XuG-127" target="ULCW9xKcWNMjdS3p1XuG-129">
          <mxGeometry relative="1" as="geometry" />
        </mxCell>
        <mxCell id="ULCW9xKcWNMjdS3p1XuG-127" value="socket server" style="rounded=0;whiteSpace=wrap;html=1;fillColor=#42E0FF;fontFamily=Times New Roman;fontSize=20;" vertex="1" parent="1">
          <mxGeometry x="1638" y="1160" width="260" height="50" as="geometry" />
        </mxCell>
        <mxCell id="ULCW9xKcWNMjdS3p1XuG-128" value="Socket server" style="text;html=1;strokeColor=none;fillColor=none;align=center;verticalAlign=middle;whiteSpace=wrap;rounded=0;fontSize=30;fontFamily=Times New Roman;fontStyle=1" vertex="1" parent="1">
          <mxGeometry x="1626.0700000000002" y="1085" width="263.86" height="30" as="geometry" />
        </mxCell>
        <mxCell id="ULCW9xKcWNMjdS3p1XuG-129" value="execute action" style="rounded=0;whiteSpace=wrap;html=1;fillColor=#42E0FF;fontFamily=Times New Roman;fontSize=20;" vertex="1" parent="1">
          <mxGeometry x="1639.9300000000003" y="1230" width="260" height="50" as="geometry" />
        </mxCell>
        <mxCell id="ULCW9xKcWNMjdS3p1XuG-130" value="" style="rounded=0;whiteSpace=wrap;html=1;dashed=1;" vertex="1" parent="1">
          <mxGeometry x="1969.86" y="1190" width="400" height="110" as="geometry" />
        </mxCell>
        <mxCell id="ULCW9xKcWNMjdS3p1XuG-131" value="test record" style="rounded=0;whiteSpace=wrap;html=1;fillColor=#42E0FF;fontFamily=Times New Roman;fontSize=20;" vertex="1" parent="1">
          <mxGeometry x="2039.86" y="1220" width="260" height="50" as="geometry" />
        </mxCell>
        <mxCell id="ULCW9xKcWNMjdS3p1XuG-132" value="Test record" style="text;html=1;strokeColor=none;fillColor=none;align=center;verticalAlign=middle;whiteSpace=wrap;rounded=0;fontSize=30;fontFamily=Times New Roman;fontStyle=1" vertex="1" parent="1">
          <mxGeometry x="2039.86" y="1140" width="263.86" height="30" as="geometry" />
        </mxCell>
        <mxCell id="ULCW9xKcWNMjdS3p1XuG-133" value="" style="rounded=0;whiteSpace=wrap;html=1;dashed=1;" vertex="1" parent="1">
          <mxGeometry x="1054" y="655" width="356" height="320" as="geometry" />
        </mxCell>
        <mxCell id="ULCW9xKcWNMjdS3p1XuG-134" value="xml" style="text;html=1;strokeColor=none;fillColor=none;align=center;verticalAlign=middle;whiteSpace=wrap;rounded=0;fontSize=30;fontFamily=Times New Roman;fontStyle=1" vertex="1" parent="1">
          <mxGeometry x="1087.65" y="615" width="263.86" height="30" as="geometry" />
        </mxCell>
        <mxCell id="ULCW9xKcWNMjdS3p1XuG-135" style="edgeStyle=orthogonalEdgeStyle;rounded=0;orthogonalLoop=1;jettySize=auto;html=1;exitX=0;exitY=0.5;exitDx=0;exitDy=0;entryX=0;entryY=0.5;entryDx=0;entryDy=0;" edge="1" parent="1" source="ULCW9xKcWNMjdS3p1XuG-138" target="ULCW9xKcWNMjdS3p1XuG-139">
          <mxGeometry relative="1" as="geometry" />
        </mxCell>
        <mxCell id="ULCW9xKcWNMjdS3p1XuG-136" style="edgeStyle=orthogonalEdgeStyle;rounded=0;orthogonalLoop=1;jettySize=auto;html=1;exitX=0;exitY=0.5;exitDx=0;exitDy=0;entryX=0;entryY=0.5;entryDx=0;entryDy=0;" edge="1" parent="1" source="ULCW9xKcWNMjdS3p1XuG-138" target="ULCW9xKcWNMjdS3p1XuG-140">
          <mxGeometry relative="1" as="geometry" />
        </mxCell>
        <mxCell id="ULCW9xKcWNMjdS3p1XuG-137" style="edgeStyle=orthogonalEdgeStyle;rounded=0;orthogonalLoop=1;jettySize=auto;html=1;exitX=0;exitY=0.5;exitDx=0;exitDy=0;entryX=0;entryY=0.5;entryDx=0;entryDy=0;" edge="1" parent="1" source="ULCW9xKcWNMjdS3p1XuG-138" target="ULCW9xKcWNMjdS3p1XuG-141">
          <mxGeometry relative="1" as="geometry" />
        </mxCell>
        <mxCell id="ULCW9xKcWNMjdS3p1XuG-138" value="xml file" style="rounded=0;whiteSpace=wrap;html=1;fillColor=#42E0FF;fontFamily=Times New Roman;fontSize=20;" vertex="1" parent="1">
          <mxGeometry x="1108.9300000000005" y="680" width="260" height="50" as="geometry" />
        </mxCell>
        <mxCell id="ULCW9xKcWNMjdS3p1XuG-139" value="xml structure" style="rounded=0;whiteSpace=wrap;html=1;fillColor=#42E0FF;fontFamily=Times New Roman;fontSize=20;" vertex="1" parent="1">
          <mxGeometry x="1107.0000000000005" y="760" width="260" height="50" as="geometry" />
        </mxCell>
        <mxCell id="ULCW9xKcWNMjdS3p1XuG-140" value="exceptions" style="rounded=0;whiteSpace=wrap;html=1;fillColor=#42E0FF;fontFamily=Times New Roman;fontSize=20;" vertex="1" parent="1">
          <mxGeometry x="1107" y="830" width="260" height="50" as="geometry" />
        </mxCell>
        <mxCell id="ULCW9xKcWNMjdS3p1XuG-141" value="exception_tags" style="rounded=0;whiteSpace=wrap;html=1;fillColor=#42E0FF;fontFamily=Times New Roman;fontSize=20;" vertex="1" parent="1">
          <mxGeometry x="1107" y="900" width="260" height="50" as="geometry" />
        </mxCell>
        <mxCell id="ULCW9xKcWNMjdS3p1XuG-142" value="Interpreter pattern" style="text;html=1;strokeColor=none;fillColor=none;align=center;verticalAlign=middle;whiteSpace=wrap;rounded=0;fontSize=20;fontFamily=Times New Roman;" vertex="1" parent="1">
          <mxGeometry x="464.14" y="-80" width="180" height="30" as="geometry" />
        </mxCell>
        <mxCell id="ULCW9xKcWNMjdS3p1XuG-143" value="Interpreter pattern" style="text;html=1;strokeColor=none;fillColor=none;align=center;verticalAlign=middle;whiteSpace=wrap;rounded=0;fontSize=20;fontFamily=Times New Roman;" vertex="1" parent="1">
          <mxGeometry x="458.14" y="-790" width="180" height="30" as="geometry" />
        </mxCell>
        <mxCell id="ULCW9xKcWNMjdS3p1XuG-144" value="Interpreter pattern" style="text;html=1;strokeColor=none;fillColor=none;align=center;verticalAlign=middle;whiteSpace=wrap;rounded=0;fontSize=20;fontFamily=Times New Roman;" vertex="1" parent="1">
          <mxGeometry x="1678" y="1125" width="180" height="30" as="geometry" />
        </mxCell>
        <mxCell id="ULCW9xKcWNMjdS3p1XuG-145" value="Singelton pattern" style="text;html=1;strokeColor=none;fillColor=none;align=center;verticalAlign=middle;whiteSpace=wrap;rounded=0;fontSize=20;fontFamily=Times New Roman;" vertex="1" parent="1">
          <mxGeometry x="2081.79" y="1190" width="180" height="30" as="geometry" />
        </mxCell>
        <mxCell id="ULCW9xKcWNMjdS3p1XuG-147" value="locust start test" style="rounded=0;whiteSpace=wrap;html=1;fillColor=#42E0FF;fontFamily=Times New Roman;fontSize=20;" vertex="1" parent="1">
          <mxGeometry x="308.14" y="-620" width="260" height="50" as="geometry" />
        </mxCell>
        <mxCell id="ULCW9xKcWNMjdS3p1XuG-149" value="locust start test" style="rounded=0;whiteSpace=wrap;html=1;fillColor=#42E0FF;fontFamily=Times New Roman;fontSize=20;" vertex="1" parent="1">
          <mxGeometry x="308.14" y="100" width="260" height="50" as="geometry" />
        </mxCell>
        <mxCell id="ULCW9xKcWNMjdS3p1XuG-168" style="edgeStyle=orthogonalEdgeStyle;rounded=0;orthogonalLoop=1;jettySize=auto;html=1;exitX=0.5;exitY=1;exitDx=0;exitDy=0;" edge="1" parent="1" source="ULCW9xKcWNMjdS3p1XuG-151" target="ULCW9xKcWNMjdS3p1XuG-153">
          <mxGeometry relative="1" as="geometry" />
        </mxCell>
        <mxCell id="ULCW9xKcWNMjdS3p1XuG-151" value="create locust env" style="rounded=0;whiteSpace=wrap;html=1;fillColor=#42E0FF;fontFamily=Times New Roman;fontSize=20;" vertex="1" parent="1">
          <mxGeometry x="1820.0000000000002" y="-590" width="260" height="50" as="geometry" />
        </mxCell>
        <mxCell id="ULCW9xKcWNMjdS3p1XuG-162" style="edgeStyle=orthogonalEdgeStyle;rounded=0;orthogonalLoop=1;jettySize=auto;html=1;exitX=0.5;exitY=1;exitDx=0;exitDy=0;entryX=0.5;entryY=0;entryDx=0;entryDy=0;" edge="1" parent="1" source="ULCW9xKcWNMjdS3p1XuG-153" target="ULCW9xKcWNMjdS3p1XuG-23">
          <mxGeometry relative="1" as="geometry" />
        </mxCell>
        <mxCell id="ULCW9xKcWNMjdS3p1XuG-153" value="requests hook" style="rounded=0;whiteSpace=wrap;html=1;fillColor=#42E0FF;fontFamily=Times New Roman;fontSize=20;" vertex="1" parent="1">
          <mxGeometry x="1820" y="-500" width="260" height="50" as="geometry" />
        </mxCell>
        <mxCell id="ULCW9xKcWNMjdS3p1XuG-154" value="proxy user" style="rounded=0;whiteSpace=wrap;html=1;fillColor=#42E0FF;fontFamily=Times New Roman;fontSize=20;" vertex="1" parent="1">
          <mxGeometry x="1470.0000000000002" y="-150" width="260" height="50" as="geometry" />
        </mxCell>
        <mxCell id="ULCW9xKcWNMjdS3p1XuG-159" style="edgeStyle=orthogonalEdgeStyle;rounded=0;orthogonalLoop=1;jettySize=auto;html=1;exitX=0;exitY=0.5;exitDx=0;exitDy=0;entryX=0;entryY=0.5;entryDx=0;entryDy=0;" edge="1" parent="1" source="ULCW9xKcWNMjdS3p1XuG-155" target="ULCW9xKcWNMjdS3p1XuG-39">
          <mxGeometry relative="1" as="geometry" />
        </mxCell>
        <mxCell id="ULCW9xKcWNMjdS3p1XuG-160" style="edgeStyle=orthogonalEdgeStyle;rounded=0;orthogonalLoop=1;jettySize=auto;html=1;exitX=0;exitY=0.5;exitDx=0;exitDy=0;entryX=0;entryY=0.5;entryDx=0;entryDy=0;" edge="1" parent="1" source="ULCW9xKcWNMjdS3p1XuG-155" target="ULCW9xKcWNMjdS3p1XuG-40">
          <mxGeometry relative="1" as="geometry" />
        </mxCell>
        <mxCell id="ULCW9xKcWNMjdS3p1XuG-169" style="edgeStyle=orthogonalEdgeStyle;rounded=0;orthogonalLoop=1;jettySize=auto;html=1;exitX=1;exitY=0.5;exitDx=0;exitDy=0;entryX=0.5;entryY=0;entryDx=0;entryDy=0;" edge="1" parent="1" source="ULCW9xKcWNMjdS3p1XuG-155" target="ULCW9xKcWNMjdS3p1XuG-151">
          <mxGeometry relative="1" as="geometry" />
        </mxCell>
        <mxCell id="ULCW9xKcWNMjdS3p1XuG-170" style="edgeStyle=orthogonalEdgeStyle;rounded=0;orthogonalLoop=1;jettySize=auto;html=1;exitX=0.5;exitY=1;exitDx=0;exitDy=0;" edge="1" parent="1" source="ULCW9xKcWNMjdS3p1XuG-155" target="ULCW9xKcWNMjdS3p1XuG-157">
          <mxGeometry relative="1" as="geometry" />
        </mxCell>
        <mxCell id="ULCW9xKcWNMjdS3p1XuG-171" style="edgeStyle=orthogonalEdgeStyle;rounded=0;orthogonalLoop=1;jettySize=auto;html=1;exitX=0.5;exitY=1;exitDx=0;exitDy=0;" edge="1" parent="1" source="ULCW9xKcWNMjdS3p1XuG-155" target="ULCW9xKcWNMjdS3p1XuG-156">
          <mxGeometry relative="1" as="geometry" />
        </mxCell>
        <mxCell id="ULCW9xKcWNMjdS3p1XuG-175" style="edgeStyle=orthogonalEdgeStyle;rounded=0;orthogonalLoop=1;jettySize=auto;html=1;exitX=0.5;exitY=0;exitDx=0;exitDy=0;entryX=0.5;entryY=0;entryDx=0;entryDy=0;" edge="1" parent="1" source="ULCW9xKcWNMjdS3p1XuG-155" target="ULCW9xKcWNMjdS3p1XuG-174">
          <mxGeometry relative="1" as="geometry" />
        </mxCell>
        <mxCell id="ULCW9xKcWNMjdS3p1XuG-155" value="start test" style="rounded=0;whiteSpace=wrap;html=1;fillColor=#42E0FF;fontFamily=Times New Roman;fontSize=20;" vertex="1" parent="1">
          <mxGeometry x="1448.5000000000002" y="-660" width="260" height="50" as="geometry" />
        </mxCell>
        <mxCell id="ULCW9xKcWNMjdS3p1XuG-173" style="edgeStyle=orthogonalEdgeStyle;rounded=0;orthogonalLoop=1;jettySize=auto;html=1;exitX=0.5;exitY=1;exitDx=0;exitDy=0;entryX=1;entryY=0.5;entryDx=0;entryDy=0;" edge="1" parent="1" source="ULCW9xKcWNMjdS3p1XuG-156" target="ULCW9xKcWNMjdS3p1XuG-154">
          <mxGeometry relative="1" as="geometry" />
        </mxCell>
        <mxCell id="ULCW9xKcWNMjdS3p1XuG-156" value="fast http user template" style="rounded=0;whiteSpace=wrap;html=1;fillColor=#42E0FF;fontFamily=Times New Roman;fontSize=20;" vertex="1" parent="1">
          <mxGeometry x="1628" y="-310" width="260" height="50" as="geometry" />
        </mxCell>
        <mxCell id="ULCW9xKcWNMjdS3p1XuG-172" style="edgeStyle=orthogonalEdgeStyle;rounded=0;orthogonalLoop=1;jettySize=auto;html=1;exitX=0.5;exitY=1;exitDx=0;exitDy=0;entryX=0;entryY=0.5;entryDx=0;entryDy=0;" edge="1" parent="1" source="ULCW9xKcWNMjdS3p1XuG-157" target="ULCW9xKcWNMjdS3p1XuG-154">
          <mxGeometry relative="1" as="geometry" />
        </mxCell>
        <mxCell id="ULCW9xKcWNMjdS3p1XuG-157" value="http user template" style="rounded=0;whiteSpace=wrap;html=1;fillColor=#42E0FF;fontFamily=Times New Roman;fontSize=20;" vertex="1" parent="1">
          <mxGeometry x="1320" y="-310" width="260" height="50" as="geometry" />
        </mxCell>
        <mxCell id="ULCW9xKcWNMjdS3p1XuG-174" value="Locust" style="rounded=0;whiteSpace=wrap;html=1;fillColor=#0381FF;fontFamily=Times New Roman;fontSize=20;" vertex="1" parent="1">
          <mxGeometry x="2160" y="-660" width="260" height="50" as="geometry" />
        </mxCell>
      </root>
    </mxGraphModel>
  </diagram>
</mxfile>
